HIERARCHY
ROOT Hips
{
	OFFSET 0 0 0
	CHANNELS 6 Xposition Yposition Zposition Zrotation Xrotation Yrotation 
	JOINT RightUpLeg
	{
		OFFSET -3.17 -2.64 -0.26
		CHANNELS 3 Zrotation Xrotation Yrotation 
		JOINT RightLeg
		{
			OFFSET -0.36 -13.7 -0.45
			CHANNELS 3 Zrotation Xrotation Yrotation 
			End Site
			{
				OFFSET 0.13 -14.01 -0.08
			}
		}
	}
	JOINT LeftUpLeg
	{
		OFFSET 3.17 -2.64 -0.26
		CHANNELS 3 Zrotation Xrotation Yrotation 
		JOINT LeftLeg
		{
			OFFSET 0.36 -13.7 -0.45
			CHANNELS 3 Zrotation Xrotation Yrotation 
			End Site
			{
				OFFSET -0.13 -14.01 -0.08
			}
		}
	}
	JOINT Spine
	{
		OFFSET 0 2.88 0
		CHANNELS 3 Zrotation Xrotation Yrotation 
		JOINT Spine1
		{
			OFFSET 0 3.38 0
			CHANNELS 3 Zrotation Xrotation Yrotation 
			JOINT Spine2
			{
				OFFSET 0 3.61 0
				CHANNELS 3 Zrotation Xrotation Yrotation 
				JOINT Spine3
				{
					OFFSET 0 3.52 0.37
					CHANNELS 3 Zrotation Xrotation Yrotation 
					JOINT Neck
					{
						OFFSET 0 3.62 -0.37
						CHANNELS 3 Zrotation Xrotation Yrotation 
						End Site
						{
							OFFSET 0 3 0
						}
					}
					JOINT RightShoulder
					{
						OFFSET -1.47 1.22 -0.37
						CHANNELS 3 Zrotation Xrotation Yrotation 
						JOINT RightArm
						{
							OFFSET -4.69 0 0
							CHANNELS 3 Zrotation Xrotation Yrotation 
							JOINT RightForeArm
							{
								OFFSET -7.76 0 0
								CHANNELS 3 Zrotation Xrotation Yrotation 
								JOINT RightHand
								{
									OFFSET -8.52 0 0
									CHANNELS 3 Zrotation Xrotation Yrotation 
									JOINT RightHandThumb1
									{
										OFFSET -1.01 0.08 1.27
										CHANNELS 3 Zrotation Xrotation Yrotation 
										JOINT RightHandThumb2
										{
											OFFSET -1.5 0 -0.01
											CHANNELS 3 Zrotation Xrotation Yrotation 
											End Site
											{
												OFFSET -1.04 0 -0.01
											}
										}
									}
									JOINT RightInHandIndex
									{
										OFFSET -1.31 0.21 0.81
										CHANNELS 3 Zrotation Xrotation Yrotation 
										JOINT RightHandIndex1
										{
											OFFSET -2.13 -0.04 0.41
											CHANNELS 3 Zrotation Xrotation Yrotation 
											JOINT RightHandIndex2
											{
												OFFSET -1.47 -0.07 0
												CHANNELS 3 Zrotation Xrotation Yrotation 
												End Site
												{
													OFFSET -0.83 -0.05 0
												}
											}
										}
									}
									JOINT RightInHandMiddle
									{
										OFFSET -1.38 0.21 0.31
										CHANNELS 3 Zrotation Xrotation Yrotation 
										JOINT RightHandMiddle1
										{
											OFFSET -2.11 -0.03 0.13
											CHANNELS 3 Zrotation Xrotation Yrotation 
											JOINT RightHandMiddle2
											{
												OFFSET -1.6 -0.11 0
												CHANNELS 3 Zrotation Xrotation Yrotation 
												End Site
												{
													OFFSET -1 -0.08 0
												}
											}
										}
									}
									JOINT RightInHandRing
									{
										OFFSET -1.37 0.22 -0.05
										CHANNELS 3 Zrotation Xrotation Yrotation 
										JOINT RightHandRing1
										{
											OFFSET -1.89 -0.01 -0.2
											CHANNELS 3 Zrotation Xrotation Yrotation 
											JOINT RightHandRing2
											{
												OFFSET -1.4 -0.13 0
												CHANNELS 3 Zrotation Xrotation Yrotation 
												End Site
												{
													OFFSET -0.97 -0.08 0
												}
											}
										}
									}
									JOINT RightInHandPinky
									{
										OFFSET -1.29 0.19 -0.49
										CHANNELS 3 Zrotation Xrotation Yrotation 
										JOINT RightHandPinky1
										{
											OFFSET -1.69 -0.01 -0.44
											CHANNELS 3 Zrotation Xrotation Yrotation 
											JOINT RightHandPinky2
											{
												OFFSET -1.12 -0.06 -0.01
												CHANNELS 3 Zrotation Xrotation Yrotation 
												End Site
												{
													OFFSET -0.71 -0.05 0
												}
											}
										}
									}
								}
							}
						}
					}
					JOINT LeftShoulder
					{
						OFFSET 1.47 1.22 -0.37
						CHANNELS 3 Zrotation Xrotation Yrotation 
						JOINT LeftArm
						{
							OFFSET 4.69 0 0
							CHANNELS 3 Zrotation Xrotation Yrotation 
							JOINT LeftForeArm
							{
								OFFSET 7.76 0 0
								CHANNELS 3 Zrotation Xrotation Yrotation 
								JOINT LeftHand
								{
									OFFSET 8.52 0 0
									CHANNELS 3 Zrotation Xrotation Yrotation 
									JOINT LeftHandThumb1
									{
										OFFSET 1.01 0.08 1.27
										CHANNELS 3 Zrotation Xrotation Yrotation 
										JOINT LeftHandThumb2
										{
											OFFSET 1.5 0 0
											CHANNELS 3 Zrotation Xrotation Yrotation 
											End Site
											{
												OFFSET 1.04 0 0
											}
										}
									}
									JOINT LeftInHandIndex
									{
										OFFSET 1.31 0.21 0.81
										CHANNELS 3 Zrotation Xrotation Yrotation 
										JOINT LeftHandIndex1
										{
											OFFSET 2.13 -0.04 0.41
											CHANNELS 3 Zrotation Xrotation Yrotation 
											JOINT LeftHandIndex2
											{
												OFFSET 1.47 -0.07 0
												CHANNELS 3 Zrotation Xrotation Yrotation 
												End Site
												{
													OFFSET 0.83 -0.05 0
												}
											}
										}
									}
									JOINT LeftInHandMiddle
									{
										OFFSET 1.38 0.21 0.31
										CHANNELS 3 Zrotation Xrotation Yrotation 
										JOINT LeftHandMiddle1
										{
											OFFSET 2.11 -0.03 0.13
											CHANNELS 3 Zrotation Xrotation Yrotation 
											JOINT LeftHandMiddle2
											{
												OFFSET 1.6 -0.11 0
												CHANNELS 3 Zrotation Xrotation Yrotation 
												End Site
												{
													OFFSET 1 -0.08 0
												}
											}
										}
									}
									JOINT LeftInHandRing
									{
										OFFSET 1.37 0.22 -0.05
										CHANNELS 3 Zrotation Xrotation Yrotation 
										JOINT LeftHandRing1
										{
											OFFSET 1.89 -0.01 -0.2
											CHANNELS 3 Zrotation Xrotation Yrotation 
											JOINT LeftHandRing2
											{
												OFFSET 1.4 -0.11 0
												CHANNELS 3 Zrotation Xrotation Yrotation 
												End Site
												{
													OFFSET 0.97 -0.07 0
												}
											}
										}
									}
									JOINT LeftInHandPinky
									{
										OFFSET 1.29 0.19 -0.49
										CHANNELS 3 Zrotation Xrotation Yrotation 
										JOINT LeftHandPinky1
										{
											OFFSET 1.69 -0.01 -0.44
											CHANNELS 3 Zrotation Xrotation Yrotation 
											JOINT LeftHandPinky2
											{
												OFFSET 1.12 -0.06 0
												CHANNELS 3 Zrotation Xrotation Yrotation 
												End Site
												{
													OFFSET 0.71 -0.05 0
												}
											}
										}
									}
								}
							}
						}
					}
				}
			}
		}
	}
}
MOTION
Frames: 4
Frame Time: 0.0333333
31.3478 17.5918 15.1504 359.447 -5.172 6.0484 36.2402 -67.1542 25.2836 180 -278.9919 180 75.5981 -3.1447 55.3085 0 -272.7474 0 357.7065 -349.738 0.4082 359.4376 -357.4228 0 359.0689 -355.7502 359.9578 359.402 -357.8735 1.3625 135.2585 -274.998 228.3872 353.2585 -350.5149 14.5821 69.0413 -33.6803 68.73 157.9176 -323.0272 295.4058 250.0609 -288.7274 135.6212 350.7886 -341.4112 116.9636 359.7867 -18.1752 89.3161 0 0 0 120.4884 -346.9983 352.4544 295.0366 0 0 0 0 0 36.8134 0 0 36.8134 0 0 0 0 0 14.607 -3.8658 345.4956 15.0991 0 0 0 0 0 119.7134 -22.0477 12.0916 117.3493 0 0 15.7958 -5.5839 351.1848 245.76 -42.3505 262.3319 270.2956 -33.8943 336.9507 239.9873 -298.821 61.0423 323.5533 -312.7357 315.1568 336.2692 -6.5278 14.4993 0 0 0 262.1296 -345.135 2.031 226.7405 0 0 0 0 0 324.9288 0 0 324.9288 0 0 0 0 0 3.506 -359.0612 14.9713 3.6294 0 0 0 0 0 357.8869 -0.985 24.9818 357.6687 0 0 
31.3478 17.5918 15.1504 359.447 -5.172 6.0484 36.2402 -67.1542 25.2836 180 -278.9919 180 75.5981 -3.1447 55.3085 0 -272.7474 0 357.7065 -349.738 0.4082 359.4376 -357.4228 0 359.0689 -355.7502 359.9578 359.402 -357.8735 1.3625 135.2585 -274.998 228.3872 353.2585 -350.5149 14.5821 69.0413 -33.6803 68.73 157.9176 -323.0272 295.4058 250.0609 -288.7274 135.6212 350.7886 -341.4112 116.9636 359.7867 -18.1752 89.3161 0 0 0 120.4884 -346.9983 352.4544 295.0366 0 0 0 0 0 36.8134 0 0 36.8134 0 0 0 0 0 14.607 -3.8658 345.4956 15.0991 0 0 0 0 0 119.7134 -22.0477 12.0916 117.3493 0 0 15.7958 -5.5839 351.1848 245.76 -42.3505 262.3319 270.2956 -33.8943 336.9507 239.9873 -298.821 61.0423 323.5533 -312.7357 315.1568 336.2692 -6.5278 14.4993 0 0 0 262.1296 -345.135 2.031 226.7405 0 0 0 0 0 324.9288 0 0 324.9288 0 0 0 0 0 3.506 -359.0612 14.9713 3.6294 0 0 0 0 0 357.8869 -0.985 24.9818 357.6687 0 0 
31.3001 17.5896 15.1423 359.4521 -5.1621 6.0647 36.3203 -67.1625 25.2145 180 -278.9044 180 75.6292 -3.2131 55.3034 0 -272.8799 0 357.5973 -349.7239 0.4024 359.4104 -357.4193 359.9935 359.0241 -355.7448 359.9449 359.3975 -357.8701 1.368 135.6731 -274.8567 227.821 353.1661 -350.3735 14.6477 69.1685 -33.6608 68.8146 157.9017 -322.8162 295.4125 250.0142 -288.717 135.6487 350.7857 -341.4025 116.9607 359.7841 -18.1662 89.3074 0 0 0 120.4629 -346.995 352.4601 295.0818 0 0 0 0 0 36.8251 0 0 36.8251 0 0 0 0 0 14.6126 -3.8672 345.496 15.1049 0 0 0 0 0 119.7257 -22.0453 12.0963 117.3611 0 0 15.943 -5.6114 351.0573 250.2777 -42.9701 265.0927 281.3433 -19.2026 340.4121 240.5122 -316.3631 66.8426 326.0526 -315.1933 313.6886 339.2722 -6.1904 15.9051 0 0 0 261.912 -345.1426 2.0869 195.5107 0 0 0 0 0 350.0123 0 0 350.0123 0 0 0 0 0 348.8914 -2.9553 14.7125 348.5098 0 0 0 0 0 12.0619 -354.4344 24.4115 13.2667 0 0 
31.3001 17.5896 15.1423 359.4521 -5.1621 6.0647 36.3203 -67.1625 25.2145 180 -278.9044 180 75.6292 -3.2131 55.3034 0 -272.8799 0 357.5973 -349.7239 0.4024 359.4104 -357.4193 359.9935 359.0241 -355.7448 359.9449 359.3975 -357.8701 1.368 135.6731 -274.8567 227.821 353.1661 -350.3735 14.6477 69.1685 -33.6608 68.8146 157.9017 -322.8162 295.4125 250.0142 -288.717 135.6487 350.7857 -341.4025 116.9607 359.7841 -18.1662 89.3074 0 0 0 120.4629 -346.995 352.4601 295.0818 0 0 0 0 0 36.8251 0 0 36.8251 0 0 0 0 0 14.6126 -3.8672 345.496 15.1049 0 0 0 0 0 119.7257 -22.0453 12.0963 117.3611 0 0 15.943 -5.6114 351.0573 250.2777 -42.9701 265.0927 281.3433 -19.2026 340.4121 240.5122 -316.3631 66.8426 326.0526 -315.1933 313.6886 339.2722 -6.1904 15.9051 0 0 0 261.912 -345.1426 2.0869 195.5107 0 0 0 0 0 350.0123 0 0 350.0123 0 0 0 0 0 348.8914 -2.9553 14.7125 348.5098 0 0 0 0 0 12.0619 -354.4344 24.4115 13.2667 0 0 
